<svg width="110" height="31" viewBox="0 0 110 31" fill="none" xmlns="http://www.w3.org/2000/svg">
<path d="M18.4894 11.7537C18.6609 11.3244 18.7828 10.8772 18.8513 10.4225C18.92 9.98151 18.9332 9.53365 18.8906 9.08937C18.735 7.11781 17.3034 5.46031 15.33 4.96906C14.8892 4.8582 14.4364 4.80215 13.9819 4.80219L8.25187 4.77875L8.88469 0.516875L4.55156 0.5L3.91875 4.76188H3.91687L3.28406 9.01813L13.35 9.05656C13.9941 9.0425 14.5275 9.53656 14.5425 10.1628C14.5453 10.2406 14.5378 10.3175 14.5247 10.3953C14.3962 11.1453 13.7372 11.7041 12.9525 11.7219L2.88844 11.6816L2.25187 15.9509H2.25375L0.1875 29.8241L8.74406 29.8559C9.74435 29.8575 10.7374 29.6862 11.6794 29.3497C12.1875 29.1716 12.6806 28.9522 13.1494 28.6934C14.5237 27.9322 15.7169 26.8826 16.6472 25.6166C16.9622 25.1947 17.2444 24.7503 17.4928 24.2872C18.0794 23.212 18.4734 22.0425 18.6572 20.8316C18.763 20.1229 18.7866 19.4044 18.7275 18.6903C18.6935 18.2408 18.6223 17.7949 18.5147 17.3572C18.4047 16.8999 18.2548 16.4532 18.0666 16.0222C17.7663 15.331 17.3574 14.6923 16.8553 14.1303C16.9425 14.0469 17.0297 13.9653 17.1131 13.8762C17.7034 13.2629 18.1712 12.5425 18.4913 11.7537M14.3222 20.8044L14.3156 20.8137C14.2041 21.5628 13.9462 22.2847 13.5563 22.94C13.2525 23.4641 12.8677 23.9368 12.4162 24.3406C11.9706 24.7432 11.4582 25.0652 10.9022 25.2922C10.4172 25.4883 9.89911 25.5899 9.37594 25.5912L5.14969 25.5744L6.57844 15.98L10.8066 15.995C11.421 15.9944 12.0245 16.1575 12.555 16.4675C12.9094 16.6766 13.2225 16.9494 13.4784 17.2681C13.7559 17.6141 13.9706 18.0022 14.1169 18.4184C14.1487 18.5009 14.1759 18.5891 14.2003 18.6763C14.3934 19.37 14.4366 20.0956 14.325 20.8053M30 11.9694C29.5586 11.8584 29.1052 11.8024 28.65 11.8025L27.2812 11.7969C26.8117 11.7956 26.3437 11.8485 25.8863 11.9544C23.7056 12.4869 21.9244 14.0094 21.1031 16.0419C20.9315 16.4702 20.81 16.9169 20.7412 17.3731L18.8775 29.8953L23.2106 29.9122L24.9825 18.0547C25.0012 17.9309 25.0322 17.8081 25.0725 17.6891C25.4025 16.7394 26.3072 16.0916 27.3384 16.0672C28.2891 16.0372 29.0859 16.7609 29.1169 17.6844V17.705C29.1216 17.8269 29.1169 17.9506 29.0981 18.0706L27.3263 29.9272L31.6584 29.9441L33.5241 17.4209C33.5897 16.9803 33.6028 16.5322 33.5597 16.0897C33.36 14.0675 31.9791 12.4709 30.0019 11.9684M90.9591 18.9744L90.225 23.9075C90.2046 24.0314 90.1738 24.1534 90.1331 24.2722C89.805 25.2209 88.8994 25.8706 87.8681 25.8941C86.9175 25.9241 86.1206 25.2003 86.0897 24.2769V24.2581C86.085 24.1362 86.0897 24.0125 86.1084 23.8916L87.8803 12.035L83.5406 12.0181L81.6712 24.5403C81.6056 24.9809 81.5934 25.4291 81.6366 25.8716C81.8363 27.8937 83.2153 29.4903 85.1953 29.9928C85.6359 30.1044 86.0869 30.1597 86.5425 30.1616L87.9131 30.1653C88.3828 30.1681 88.8525 30.1147 89.3081 30.0087C91.4887 29.4744 93.2691 27.9519 94.0912 25.9212C94.2628 25.4919 94.3838 25.0447 94.4522 24.59L95.2866 18.9913L90.9591 18.9744ZM109.88 16.3906C109.681 14.3703 108.302 12.7738 106.323 12.2703C105.882 12.1596 105.429 12.1029 104.975 12.1016L103.603 12.0969C103.134 12.0969 102.665 12.1484 102.208 12.2553C100.028 12.7878 98.2481 14.3103 97.4241 16.3428C97.2525 16.7722 97.1334 17.2184 97.0631 17.6741L95.1975 30.1963L99.5306 30.2122L101.303 18.3556C101.321 18.2309 101.351 18.1082 101.393 17.9891C101.722 17.0403 102.627 16.3925 103.656 16.3672C104.605 16.3381 105.402 17.0609 105.433 17.9853V18.0059C105.438 18.1281 105.433 18.2504 105.416 18.3716L103.643 30.2272L107.978 30.2441L109.843 17.7219C109.911 17.2814 109.923 16.8341 109.878 16.3906M77.6063 12.1494C77.1656 12.0369 76.7156 11.9825 76.2591 11.9806L69.1838 11.9534L68.5491 16.2088L75.6244 16.2369C76.2675 16.2219 76.8009 16.7169 76.8169 17.3431C76.8169 17.4209 76.8122 17.4978 76.7981 17.5756L75.765 24.5066C75.6394 25.2584 74.9794 25.8144 74.1956 25.8313L71.4553 25.8219L71.8491 23.1641L67.5178 23.1472L67.1203 25.8059L66.4847 30.0734L73.56 30.1016C74.0287 30.1016 74.4994 30.05 74.955 29.945C77.1356 29.4116 78.9169 27.8891 79.7391 25.8566C79.9106 25.4281 80.0297 24.9809 80.1 24.5253L81.1312 17.5953C81.1969 17.1575 81.2081 16.7131 81.1687 16.2734C80.9653 14.2541 79.5872 12.6631 77.6044 12.1522M65.7966 23.4716C65.7966 23.4256 65.7966 23.3806 65.79 23.3347C65.7816 23.2887 65.79 23.2531 65.7816 23.2128V23.1322C65.7816 23.1125 65.7816 23.0909 65.7741 23.0713C65.7656 23.0497 65.7647 22.9869 65.7581 22.9438V22.9006C65.7485 22.8367 65.7375 22.7729 65.7253 22.7094C65.7197 22.6859 65.7159 22.6653 65.7075 22.6438C65.6934 22.5819 65.6813 22.52 65.6663 22.46L65.6559 22.4253L65.6259 22.3081C65.6217 22.2971 65.6183 22.2859 65.6156 22.2744C65.5922 22.1984 65.5716 22.1244 65.5444 22.0494C65.4229 21.6842 65.2553 21.3361 65.0456 21.0134C65.0257 20.9815 65.0038 20.9508 64.98 20.9216C64.9321 20.8508 64.8801 20.7829 64.8244 20.7181C64.8 20.6833 64.7734 20.6501 64.7447 20.6187L64.6641 20.5222L64.5806 20.4275C64.5516 20.3956 64.5244 20.3656 64.4934 20.3356L64.4053 20.2466C63.7596 19.6181 62.9494 19.1849 62.0681 18.9969C61.7548 18.9277 61.4361 18.8857 61.1156 18.8713H60.8794L60.7941 18.8684L59.5959 18.8647H59.4197L58.1353 18.86L58.3359 17.5278C58.332 17.5045 58.332 17.4808 58.3359 17.4575C58.3474 17.3874 58.3669 17.3188 58.3941 17.2531C58.4034 17.2288 58.4072 17.2119 58.4166 17.1912L58.4419 17.1294L58.4747 17.0675C58.485 17.0487 58.4953 17.0263 58.5094 17.0066C58.5187 16.9878 58.5281 16.9691 58.5384 16.9559C58.6543 16.7717 58.8057 16.6123 58.9837 16.4872C59.2106 16.3184 59.4816 16.2144 59.7675 16.1853H59.8912L66.9694 16.2134L67.6012 11.9572L60.5241 11.93H60.3122C59.5029 11.9498 58.7058 12.1322 57.9684 12.4662L57.8344 12.5272L57.7041 12.5881C57.6188 12.6313 57.5297 12.6762 57.4453 12.7241C57.3984 12.7484 57.3516 12.7737 57.3056 12.8019L57.1931 12.8684C57.15 12.8919 57.1097 12.9181 57.0684 12.9434L56.9447 13.0241C56.8622 13.0784 56.7863 13.1328 56.7047 13.1881C56.6644 13.2181 56.6259 13.2453 56.5866 13.2762L56.4938 13.3447L56.3569 13.4553L56.25 13.5453L56.1356 13.6438L56.025 13.7431L55.92 13.8434L55.8197 13.9447L55.7166 14.0497L55.6162 14.1566L55.5187 14.2644C55.4232 14.3736 55.3316 14.4861 55.2441 14.6019C55.1839 14.6775 55.1267 14.7553 55.0725 14.8353L54.9881 14.9553C54.9666 14.9891 54.9431 15.0228 54.9225 15.0566C54.9019 15.0903 54.8616 15.1522 54.8334 15.2L54.7566 15.3238L54.7406 15.3538C54.6759 15.47 54.6131 15.5881 54.5531 15.7081C54.5091 15.7953 54.4697 15.8816 54.4284 15.9706L54.3506 16.1609L54.3356 16.1994C54.3112 16.2556 54.2916 16.3128 54.2728 16.3691C54.2541 16.4234 54.2372 16.4647 54.2231 16.5116C54.2081 16.5594 54.1987 16.5819 54.1894 16.6203C54.1833 16.6327 54.1792 16.646 54.1772 16.6597C54.1664 16.6889 54.157 16.7186 54.1491 16.7488V16.7628C54.1342 16.8158 54.1198 16.8689 54.1059 16.9222L54.0722 17.0647C54.0619 17.1078 54.0534 17.1519 54.0441 17.1978L54.0206 17.3169L53.9991 17.4444L52.9584 24.4231C52.8926 24.8644 52.8809 25.3121 52.9237 25.7563C53.1244 27.7738 54.5044 29.3712 56.4816 29.8766C56.8509 29.9684 57.2297 30.02 57.6103 30.0331L59.2031 30.0387C59.6719 30.0387 60.1406 29.9881 60.5981 29.8813C62.7769 29.3469 64.5553 27.8244 65.3766 25.7937L65.4666 25.5519L65.5078 25.43L65.5472 25.3062L65.595 25.145C65.6231 25.0325 65.6512 24.92 65.6747 24.8066C65.6869 24.7503 65.6991 24.6912 65.7094 24.635C65.7169 24.5787 65.7272 24.5244 65.7366 24.47L65.7469 24.4006V24.3641C65.7469 24.3425 65.7469 24.3172 65.7572 24.2928C65.7666 24.2694 65.7666 24.2178 65.7666 24.1822C65.7694 24.1466 65.7759 24.0884 65.7787 24.0416C65.7787 23.9947 65.7787 23.9459 65.7881 23.8991C65.7966 23.8522 65.7881 23.8062 65.7881 23.7584V23.48M61.4109 24.1972V24.38L61.4016 24.455C61.4016 24.4775 61.4016 24.4972 61.3912 24.5178C61.3869 24.5434 61.3813 24.5687 61.3744 24.5938C61.365 24.6266 61.3575 24.6594 61.3453 24.6912C61.3341 24.7231 61.3294 24.74 61.3181 24.7616L61.3013 24.8075L61.275 24.8647C61.1402 25.1309 60.9353 25.3552 60.6823 25.5135C60.4294 25.6718 60.138 25.758 59.8397 25.7628L58.3444 25.7572C57.7041 25.7094 57.2269 25.1666 57.2756 24.5469C57.2794 24.5066 57.285 24.4662 57.2906 24.4269L57.4894 23.0956L60.2316 23.1303H60.3628C60.7537 23.1612 61.0988 23.3844 61.2816 23.7219C61.3003 23.7575 61.3191 23.7931 61.3303 23.8316C61.3397 23.8503 61.3463 23.8691 61.3547 23.8888C61.3613 23.9075 61.3669 23.9281 61.3706 23.9487C61.3706 23.9675 61.3809 23.99 61.3866 24.0097C61.3931 24.0294 61.3978 24.05 61.3988 24.0716C61.4049 24.1019 61.409 24.1326 61.4109 24.1634V24.1991M47.8641 18.9706C47.7401 18.9394 47.615 18.9128 47.4891 18.8909L47.5219 18.8178C47.6906 18.3894 47.8125 17.945 47.8809 17.4903C47.9494 17.0441 47.9588 16.5922 47.9137 16.1422C47.7113 14.1266 46.3331 12.5356 44.3569 12.0219C43.9161 11.9105 43.4633 11.8538 43.0087 11.8531L41.64 11.8484C41.1712 11.8484 40.7016 11.9009 40.245 12.0059C38.0662 12.5403 36.2859 14.0628 35.4647 16.0934C35.293 16.5217 35.1716 16.9684 35.1028 17.4247C35.0361 17.8646 35.0235 18.3111 35.0653 18.7541C35.1375 19.5116 35.3934 20.2409 35.8097 20.885C36.4673 21.875 37.4688 22.5859 38.6203 22.88L38.7759 22.9194C38.8509 22.9353 38.9259 22.9494 39.0009 22.9625C38.9916 22.9869 38.9784 23.0103 38.9691 23.0356C38.8003 23.4641 38.6822 23.9084 38.6138 24.3622C38.5462 24.8028 38.535 25.2472 38.5772 25.6916C38.6484 26.4509 38.9053 27.185 39.3234 27.8309C39.5203 28.1319 39.7528 28.4112 40.0172 28.6587C40.6149 29.2164 41.3447 29.6129 42.1378 29.8109L42.2934 29.8494C42.6825 29.9338 43.08 29.9778 43.4784 29.9778L44.8538 29.9825C45.2634 29.9853 45.6741 29.945 46.0772 29.8644L46.2487 29.8269C47.1374 29.6188 47.9748 29.2333 48.7106 28.6934C49.0472 28.4478 49.3641 28.1722 49.6519 27.8713C50.2441 27.2582 50.7129 26.537 51.0328 25.7469C51.2016 25.3194 51.3225 24.875 51.3919 24.4222C51.4603 23.9788 51.4697 23.5306 51.4228 23.0862C51.2203 21.0706 49.8422 19.4788 47.8669 18.9734M39.435 17.4509C39.5653 16.7009 40.2234 16.1478 41.0072 16.1291L42.3778 16.1347C43.0191 16.1187 43.5544 16.6119 43.5713 17.2362C43.5713 17.4187 43.5376 17.5995 43.4719 17.7697C43.3588 18.0519 43.1696 18.2972 42.9252 18.4781C42.6809 18.6591 42.3911 18.7686 42.0881 18.7944H41.8941L40.6988 18.7878H40.5056C40.2311 18.7759 39.9703 18.6644 39.772 18.4743C39.5736 18.2842 39.4511 18.0284 39.4275 17.7547C39.4186 17.6531 39.4218 17.5508 39.4369 17.45M47.0625 24.4062C47.0466 24.5094 47.0203 24.6106 46.9809 24.71C46.8683 24.992 46.6793 25.2372 46.4353 25.418C46.1912 25.5988 45.9017 25.7081 45.5991 25.7337H45.405L44.2097 25.7291H44.0166C43.7423 25.7165 43.4818 25.6049 43.2835 25.4149C43.0853 25.2249 42.9627 24.9695 42.9384 24.6959C42.9288 24.5941 42.9319 24.4914 42.9478 24.3903C43.0791 23.6403 43.7372 23.0863 44.5191 23.0684L45.8906 23.0731C46.5328 23.0572 47.0672 23.5503 47.0831 24.1756C47.0859 24.2506 47.0794 24.3294 47.0644 24.4053" fill="#0A202D"/>
</svg>
