<svg width="37" height="33" viewBox="0 0 37 33" fill="none" xmlns="http://www.w3.org/2000/svg">
<path d="M18.4998 4.49138e-05C15.1085 -0.00784596 11.7963 1.0242 9.00979 2.95704C6.47673 4.70992 4.48215 7.13388 3.24979 9.95704C2.09479 10.373 1.38479 10.984 1.13579 11.778L1.13179 11.79L1.12879 11.802L1.12579 11.814L1.12279 11.826L1.10879 11.876C0.301159 14.89 0.297021 18.063 1.09679 21.079V21.085L1.13679 21.231L1.14679 21.265L1.15479 21.299L1.16779 21.331L1.18079 21.364C1.38396 21.7786 1.67443 22.1443 2.03226 22.436C2.39009 22.7277 2.8068 22.9386 3.25379 23.054C4.54715 26.0107 6.67733 28.5243 9.38179 30.285C12.0939 32.0517 15.2611 32.9918 18.4978 32.991C21.7378 32.991 24.9058 32.051 27.6138 30.285C30.3181 28.5245 32.4483 26.0113 33.7418 23.055C34.1889 22.9395 34.6056 22.7285 34.9635 22.4366C35.3213 22.1447 35.6117 21.7788 35.8148 21.364L35.8268 21.331L35.8398 21.298L35.8488 21.264L35.8588 21.23L35.8988 21.084V21.077C36.6978 18.062 36.6938 14.892 35.8868 11.878L35.8718 11.823L35.8688 11.811L35.8658 11.799L35.8618 11.788L35.8578 11.775C35.6098 10.982 34.8978 10.37 33.7448 9.95405C32.4544 6.99274 30.3247 4.47436 27.6188 2.71004C24.9049 0.940326 21.7347 -0.0012982 18.4948 4.49138e-05" fill="white"/>
<path d="M18.5 1.287C21.589 1.287 24.605 2.216 27.154 3.95C29.6986 5.67929 31.66 8.13851 32.78 11.004C33.781 11.269 34.475 11.684 34.625 12.162L34.639 12.212C35.387 15.009 35.391 17.952 34.649 20.75L34.609 20.897C34.429 21.355 33.745 21.752 32.775 22.008C31.6533 24.8707 29.6917 27.3269 27.148 29.054C24.5965 30.7868 21.5832 31.7128 18.499 31.712C15.412 31.712 12.398 30.786 9.84999 29.054C7.30628 27.327 5.34466 24.8707 4.22299 22.008C3.25299 21.752 2.56899 21.353 2.38899 20.897L2.34899 20.75C1.60692 17.9519 1.61071 15.0082 2.35999 12.212L2.37299 12.162C2.52299 11.685 3.21699 11.268 4.21799 11.004C5.338 8.13851 7.29939 5.67929 9.84399 3.95C12.3963 2.21448 15.4115 1.28663 18.498 1.287M18.498 0.644003C15.2389 0.636347 12.0558 1.62827 9.37799 3.486C6.86443 5.2253 4.90445 7.65115 3.73199 10.474C2.90599 10.733 1.99799 11.189 1.75199 11.971L1.74799 11.983L1.74499 11.993L1.73099 12.044C0.952754 14.9494 0.949306 18.0079 1.72099 20.915V20.919L1.75999 21.065L1.76899 21.099L1.78199 21.131C2.06899 21.861 2.94599 22.292 3.73499 22.539C4.9448 25.4466 6.99144 27.929 9.61499 29.671C12.2468 31.4185 15.3359 32.3501 18.495 32.349C21.657 32.349 24.747 31.417 27.375 29.671C29.9985 27.929 32.0452 25.4466 33.255 22.539C34.045 22.292 34.921 21.86 35.208 21.131L35.221 21.099L35.23 21.065L35.27 20.919V20.915C36.04 18.008 36.037 14.952 35.26 12.046L35.245 11.994L35.242 11.983L35.238 11.971C34.993 11.189 34.084 10.733 33.258 10.474C32.0513 7.56142 30.0051 5.07384 27.38 3.328C24.7467 1.5766 21.6545 0.6428 18.492 0.644003" fill="#002269"/>
<path d="M5.078 10.867C6.19674 8.24193 8.06505 6.00524 10.449 4.437C12.8399 2.86314 15.6396 2.02457 18.502 2.025C21.367 2.025 24.168 2.865 26.555 4.437C28.939 6.00519 30.8073 8.2419 31.926 10.867C23.027 9.52438 13.977 9.52438 5.078 10.867ZM18.503 23.137C14.0083 23.1586 9.51906 22.8216 5.078 22.129C6.19684 24.7546 8.06553 26.9916 10.45 28.56C12.8409 30.1339 15.6406 30.9724 18.503 30.972C21.368 30.972 24.169 30.132 26.556 28.56C28.94 26.9918 30.8083 24.7551 31.927 22.13C27.4862 22.8219 22.9973 23.1593 18.503 23.137Z" fill="#FF681D"/>
<path d="M11.317 14.563C10.6629 14.1034 9.88813 13.8461 9.089 13.823C8.403 13.823 5.911 13.975 5.911 16.581C5.89337 16.9179 5.94626 17.2548 6.06628 17.5701C6.1863 17.8853 6.37081 18.1721 6.608 18.412C6.84555 18.6535 7.13048 18.8433 7.44489 18.9695C7.75929 19.0956 8.09639 19.1554 8.435 19.145C9.624 19.088 9.595 18.856 9.595 18.856V17.613H8.22V15.943H12.428V20.643H9.597V20.419C8.9221 20.7448 8.17798 20.9013 7.429 20.875C6.043 20.875 2.798 20.195 2.798 16.323C2.798 13.53 5.449 12.071 7.699 12.071C10.135 12.071 11.318 12.901 11.318 12.901L11.317 14.563ZM14.257 15.946V19.182C14.257 19.475 14.257 20.877 16.913 20.877C17.6383 20.8434 18.3527 20.6876 19.026 20.416V20.648H21.793V15.938H19.026V19.224C19.026 19.224 17.012 19.716 17.012 18.514V15.94H14.257M23.782 12.9V20.628H26.534V12.904H23.782M32.2 20.646V17.606H33.425V15.946H32.2V14.986C32.2 14.433 32.844 14.609 32.844 14.609C33.153 14.684 33.445 14.813 33.708 14.991V13.4C33.708 13.4 32.946 12.708 30.987 12.708C29.529 12.708 29.532 13.814 29.532 13.814V15.928H28.387V17.618H29.532V20.643H32.197" fill="#002269"/>
</svg>
