<svg width="20" height="20" viewBox="0 0 20 20" fill="none" xmlns="http://www.w3.org/2000/svg">
<path d="M7.16132 10.1131C7.16132 8.36186 8.58127 6.94179 10.3334 6.94179C12.0854 6.94179 13.5062 8.36186 13.5062 10.1131C13.5062 11.8644 12.0854 13.2845 10.3334 13.2845C8.58127 13.2845 7.16132 11.8644 7.16132 10.1131ZM5.44617 10.1131C5.44617 12.8111 7.63416 14.9982 10.3334 14.9982C13.0326 14.9982 15.2205 12.8111 15.2205 10.1131C15.2205 7.41517 13.0326 5.22817 10.3334 5.22817C7.63416 5.22817 5.44617 7.41517 5.44617 10.1131ZM14.2719 5.03448C14.2718 5.26026 14.3386 5.48101 14.4641 5.66879C14.5895 5.85658 14.7678 6.00297 14.9766 6.08946C15.1852 6.17595 15.4148 6.19864 15.6363 6.15469C15.8579 6.11073 16.0614 6.00209 16.2212 5.84249C16.3811 5.6829 16.4899 5.47953 16.534 5.25809C16.5782 5.03668 16.5557 4.80712 16.4693 4.59849C16.383 4.38986 16.2367 4.2115 16.0489 4.08599C15.8612 3.96048 15.6404 3.89343 15.4145 3.89334C15.1117 3.89348 14.8209 4.01374 14.6068 4.2277C14.3926 4.44166 14.2721 4.73183 14.2719 5.03448ZM6.48824 17.8567C5.56031 17.8145 5.05595 17.66 4.72078 17.5295C4.27642 17.3566 3.95937 17.1506 3.62602 16.8179C3.29268 16.4852 3.08634 16.1686 2.9141 15.7244C2.78345 15.3895 2.62888 14.8853 2.5867 13.9578C2.54056 12.955 2.53134 12.6537 2.53134 10.1132C2.53134 7.57271 2.54132 7.27232 2.5867 6.2687C2.62896 5.34119 2.78467 4.8379 2.9141 4.50204C3.0871 4.05788 3.29313 3.74097 3.62602 3.40778C3.95891 3.07458 4.27566 2.86834 4.72078 2.69618C5.0558 2.56558 5.56031 2.41109 6.48824 2.36893C7.49147 2.32281 7.79283 2.3136 10.3334 2.3136C12.8738 2.3136 13.1756 2.32357 14.1796 2.36893C15.1075 2.41117 15.6111 2.5668 15.9471 2.69618C16.3914 2.86834 16.7085 3.07504 17.0418 3.40778C17.3751 3.74052 17.5807 4.05788 17.7537 4.50204C17.8844 4.83691 18.039 5.34119 18.0811 6.2687C18.1273 7.27232 18.1365 7.57271 18.1365 10.1132C18.1365 12.6537 18.1273 12.9541 18.0811 13.9578C18.0388 14.8853 17.8835 15.3894 17.7537 15.7244C17.5807 16.1686 17.3747 16.4854 17.0418 16.8179C16.7089 17.1503 16.3914 17.3566 15.9471 17.5295C15.6121 17.6601 15.1075 17.8146 14.1796 17.8567C13.1763 17.9029 12.8749 17.912 10.3334 17.912C7.79169 17.912 7.49116 17.9029 6.48824 17.8567ZM6.40943 0.657442C5.39622 0.703562 4.70387 0.864147 4.09924 1.09932C3.47305 1.34217 2.94296 1.66798 2.41325 2.19662C1.88354 2.72526 1.55842 3.25595 1.31545 3.88185C1.08017 4.48659 0.919515 5.17825 0.873374 6.191C0.826471 7.20534 0.815735 7.52963 0.815735 10.1131C0.815735 12.6967 0.826471 13.0209 0.873374 14.0353C0.919515 15.0481 1.08017 15.7397 1.31545 16.3445C1.55842 16.97 1.88361 17.5013 2.41325 18.0296C2.94289 18.5581 3.47305 18.8834 4.09924 19.127C4.70502 19.3621 5.39622 19.5227 6.40943 19.5689C7.42477 19.6149 7.74867 19.6265 10.3334 19.6265C12.918 19.6265 13.2425 19.6157 14.2573 19.5689C15.2706 19.5227 15.9625 19.3621 16.5674 19.127C17.1933 18.8834 17.7237 18.5583 18.2534 18.0296C18.7831 17.5011 19.1076 16.97 19.3512 16.3445C19.5865 15.7397 19.7479 15.048 19.7934 14.0353C19.8394 13.0202 19.8502 12.6967 19.8502 10.1131C19.8502 7.52963 19.8394 7.20534 19.7934 6.191C19.7472 5.17817 19.5865 4.48621 19.3512 3.88185C19.1076 3.25633 18.7823 2.72609 18.2534 2.19662C17.7246 1.66715 17.1933 1.34217 16.5682 1.09932C15.9625 0.864147 15.2705 0.702801 14.258 0.657442C13.2432 0.611321 12.9187 0.599829 10.3341 0.599829C7.74943 0.599829 7.42477 0.61056 6.40943 0.657442Z" fill="black"/>
</svg>
