<svg width="9" height="6" viewBox="0 0 9 6" fill="none" xmlns="http://www.w3.org/2000/svg">
<path d="M8.16286 2.26005C8.45575 1.96716 8.45575 1.49228 8.16286 1.19939C7.86997 0.906497 7.39509 0.906497 7.1022 1.19939L8.16286 2.26005ZM1.56286 1.19939C1.26997 0.906497 0.795094 0.906497 0.502201 1.19939C0.209308 1.49228 0.209308 1.96716 0.502201 2.26005L1.56286 1.19939ZM7.1022 1.19939L4.38553 3.91606L5.44619 4.97672L8.16286 2.26005L7.1022 1.19939ZM4.38553 3.91606C4.37261 3.92898 4.35496 3.93701 4.33253 3.93701C4.3101 3.93701 4.29245 3.92898 4.27953 3.91606L3.21887 4.97672C3.83259 5.59044 4.83247 5.59044 5.44619 4.97672L4.38553 3.91606ZM4.27953 3.91606L1.56286 1.19939L0.502201 2.26005L3.21887 4.97672L4.27953 3.91606Z" fill="#777777"/>
</svg>
