<svg width="11" height="20" viewBox="0 0 11 20" fill="none" xmlns="http://www.w3.org/2000/svg">
<path fill-rule="evenodd" clip-rule="evenodd" d="M1.10102 1.23102C0.875998 1.45606 0.749581 1.76128 0.749581 2.07952C0.749581 2.39777 0.875998 2.70298 1.10102 2.92802L7.62102 9.44802C7.76582 9.59506 7.84699 9.79315 7.84699 9.99952C7.84699 10.2059 7.76582 10.404 7.62102 10.551L1.10102 17.071C0.988105 17.1821 0.898298 17.3145 0.836785 17.4604C0.775272 17.6064 0.74327 17.7631 0.742625 17.9215C0.74198 18.08 0.772704 18.2369 0.833027 18.3834C0.893349 18.5299 0.982075 18.6629 1.09409 18.775C1.2061 18.887 1.33918 18.9757 1.48565 19.036C1.63213 19.0963 1.78909 19.1271 1.9475 19.1264C2.10591 19.1258 2.26262 19.0938 2.4086 19.0323C2.55458 18.9707 2.68693 18.8809 2.79802 18.768L9.31802 12.248C9.91286 11.6509 10.2468 10.8424 10.2468 9.99952C10.2468 9.15667 9.91286 8.34816 9.31802 7.75102L2.79802 1.23102C2.57298 1.00599 2.26777 0.879578 1.94952 0.879578C1.63128 0.879578 1.32607 1.00599 1.10102 1.23102Z" fill="white"/>
</svg>
