<svg width="11" height="20" viewBox="0 0 11 20" fill="none" xmlns="http://www.w3.org/2000/svg">
<path fill-rule="evenodd" clip-rule="evenodd" d="M9.89898 18.769C10.124 18.5439 10.2504 18.2387 10.2504 17.9205C10.2504 17.6022 10.124 17.297 9.89898 17.072L3.37898 10.552C3.23418 10.4049 3.15301 10.2068 3.15301 10.0005C3.15301 9.79411 3.23418 9.59602 3.37898 9.44898L9.89898 2.92898C10.0119 2.81788 10.1017 2.68553 10.1632 2.53955C10.2247 2.39358 10.2567 2.23686 10.2574 2.07845C10.258 1.92005 10.2273 1.76308 10.167 1.61661C10.1067 1.47013 10.0179 1.33705 9.90591 1.22504C9.7939 1.11303 9.66082 1.0243 9.51435 0.963982C9.36787 0.90366 9.21091 0.872934 9.0525 0.873579C8.89409 0.874224 8.73738 0.906225 8.5914 0.967739C8.44542 1.02925 8.31307 1.11906 8.20198 1.23198L1.68198 7.75198C1.08714 8.34911 0.753151 9.15762 0.753151 10.0005C0.753151 10.8433 1.08714 11.6518 1.68198 12.249L8.20198 18.769C8.42702 18.994 8.73223 19.1204 9.05048 19.1204C9.36872 19.1204 9.67393 18.994 9.89898 18.769Z" fill="white"/>
</svg>
