<svg width="30" height="29" viewBox="0 0 30 29" fill="none" xmlns="http://www.w3.org/2000/svg">
<mask id="mask0_1_458" style="mask-type:alpha" maskUnits="userSpaceOnUse" x="0" y="0" width="30" height="29">
<path d="M0.333328 0H29.3333V29H0.333328V0Z" fill="black"/>
</mask>
<g mask="url(#mask0_1_458)">
<path d="M28.6497 -0.0551615C29.1314 -0.0551615 29.5216 0.337642 29.5216 0.821978V9.72675C29.5216 10.505 28.5885 10.8978 28.0378 10.3518L19.0563 1.44701C18.5003 0.89625 18.8879 -0.0551615 19.6677 -0.0551615H28.6497Z" fill="#FF681D"/>
<path d="M1.20522 -0.0551615C0.723509 -0.0551615 0.333328 0.337642 0.333328 0.821978V9.72675C0.333328 10.505 1.26589 10.8978 1.81717 10.3518L10.7992 1.44701C11.3546 0.89625 10.9671 -0.0551615 10.1872 -0.0551615H1.20522Z" fill="#FF681D"/>
<path d="M28.6499 29.0002C29.1316 29.0002 29.5218 28.6074 29.5218 28.1231V19.2183C29.5218 18.44 28.5887 18.0472 28.0379 18.5933L19.0559 27.4981C18.5005 28.0488 18.888 29.0002 19.6679 29.0002H28.6499Z" fill="#FF681D"/>
<path d="M1.20522 29.0002C0.723509 29.0002 0.333328 28.6074 0.333328 28.1231V19.2183C0.333328 18.44 1.26589 18.0472 1.81717 18.5933L10.7992 27.4981C11.3546 28.0488 10.9671 29.0002 10.1872 29.0002H1.20522Z" fill="#FF681D"/>
</g>
</svg>
