<svg width="5" height="10" viewBox="0 0 5 10" fill="none" xmlns="http://www.w3.org/2000/svg">
<path d="M1.59214 1.16947C1.29925 0.876582 0.824375 0.876582 0.531482 1.16947C0.238589 1.46237 0.238589 1.93724 0.531482 2.23013L1.59214 1.16947ZM0.531482 7.76947C0.238589 8.06237 0.238589 8.53724 0.531482 8.83013C0.824375 9.12303 1.29925 9.12303 1.59214 8.83013L0.531482 7.76947ZM0.531482 2.23013L3.24815 4.9468L4.30881 3.88614L1.59214 1.16947L0.531482 2.23013ZM3.24815 4.9468C3.26108 4.95973 3.2691 4.97738 3.2691 4.9998C3.2691 5.02223 3.26108 5.03988 3.24815 5.05281L4.30881 6.11347C4.92254 5.49974 4.92254 4.49987 4.30881 3.88614L3.24815 4.9468ZM3.24815 5.05281L0.531482 7.76947L1.59214 8.83013L4.30881 6.11347L3.24815 5.05281Z" fill="#FF681D"/>
</svg>
